<svg width="121" height="20" fill="none" xmlns="http://www.w3.org/2000/svg"><path d="M11.972 10.287c.943.073 1.763.473 2.463 1.196.697.728 1.047 1.725 1.047 2.995 0 1.558-.516 2.801-1.55 3.729-1.036.923-2.522 1.389-4.465 1.389H0V1.362h9.444c1.67 0 3.005.454 4.014 1.363 1.008.908 1.508 2.112 1.508 3.617 0 1.143-.315 2.051-.95 2.72-.635.67-1.316 1.044-2.04 1.117v.108h-.004zm-7.481-1.39h3.918c.67 0 1.204-.184 1.604-.558.4-.373.6-.865.6-1.481 0-.562-.195-1.016-.584-1.363-.389-.346-.874-.515-1.455-.515H4.491v3.917zm4.19 7.078c.709 0 1.255-.181 1.648-.543.389-.362.585-.862.585-1.497 0-.6-.2-1.074-.6-1.428-.4-.354-.916-.53-1.551-.53H4.49v3.998h4.19zm22.39 3.617H26.72v-1.304C25.63 19.43 24.233 20 22.53 20c-1.598 0-2.88-.523-3.853-1.566-.97-1.043-1.455-2.417-1.455-4.122V5.934h4.326v7.455c0 .796.22 1.447.654 1.947.435.5.997.746 1.686.746.889 0 1.581-.311 2.082-.939.5-.627.746-1.581.746-2.87V5.934h4.353v13.658h.004zm13.408 0H32.953v-.82l5.419-9.382h-5.284V5.934h11.326v.82l-5.419 9.382h5.484v3.456zm13.408 0H46.361v-.82L51.78 9.39h-5.288V5.934h11.326v.82l-5.419 9.382h5.484v3.456h.004zM64.36 9.144h7.874v3.917H64.36v6.531h-4.491V1.362h13.088v3.945H64.36v3.837zm39.773 4.733H94.119c.258 1.693 1.524 2.64 3.44 2.64 1.51 0 2.999-.592 4.115-1.45l1.67 2.893c-1.528 1.313-3.51 2.04-5.784 2.04-4.58 0-7.712-2.79-7.712-7.239 0-2.105.7-3.837 2.093-5.199 1.397-1.362 3.11-2.04 5.142-2.04 1.978 0 3.636.662 4.979 1.986 1.343 1.324 2.032 3.075 2.067 5.253v1.116h.004zm-8.817-4.245A2.881 2.881 0 0094.2 11.21h5.634c-.2-.708-.542-1.243-1.035-1.604-.489-.362-1.062-.543-1.713-.543a3.03 3.03 0 00-1.77.57zm-7.104 4.245H78.2c.258 1.693 1.524 2.64 3.44 2.64 1.509 0 2.998-.592 4.114-1.45l1.67 2.893C85.895 19.273 83.913 20 81.64 20c-4.58 0-7.712-2.79-7.712-7.239 0-2.105.7-3.837 2.093-5.199 1.398-1.362 3.11-2.04 5.142-2.04 1.978 0 3.637.662 4.98 1.986 1.343 1.324 2.032 3.075 2.066 5.253v1.116h.004zm-8.817-4.245c-.542.382-.915.909-1.115 1.578h5.633c-.2-.708-.542-1.243-1.035-1.604-.488-.362-1.062-.543-1.712-.543-.639 0-1.228.188-1.77.57zm41.582 9.96h-4.352v-1.089C115.516 19.5 114.104 20 112.38 20c-1.851 0-3.425-.677-4.722-2.028-1.297-1.35-1.947-3.09-1.947-5.21 0-2.106.65-3.838 1.947-5.2 1.297-1.362 2.871-2.04 4.722-2.04 1.724 0 3.14.5 4.245 1.497V0h4.352v19.592zm-5.345-4.283c.662-.662.993-1.509.993-2.544 0-1.016-.331-1.859-.993-2.532-.662-.67-1.447-1.008-2.355-1.008-.963 0-1.751.33-2.367.992-.616.662-.924 1.509-.924 2.544 0 1.05.308 1.905.924 2.56.616.654 1.404.98 2.367.98.908 0 1.693-.33 2.355-.992z" fill="#fff"/></svg>