<svg width="28" height="20" fill="none" xmlns="http://www.w3.org/2000/svg"><path d="M13.6 13.098c-6.277 0-11.388.06-11.388.121 0 .08 5.09.121 11.389.121 6.297 0 11.388-.06 11.388-.12 0-.061-5.11-.122-11.388-.122zm7.566-2.877h-.624l-2.535-8.49-2.636 8.49h-.623L12.353.885h.423l2.293 8.934h.02L17.847.926h.362l2.656 8.893L23.3.885h.422l-2.555 9.336zM22.736 0c-.262 0-.483.181-.584.463l-1.449 5.835L18.873 0h-1.45c-.24 0-.462.161-.583.463l-1.69 5.835L13.741.483v-.02C13.642.18 13.42 0 13.159 0h-2.173l2.978 11.167.04.161h2.093l1.85-6.117 1.852 6.117h2.092L24.93.02h-2.194V0zM9.515 5.976c0 1.247.02 2.555-.986 3.561-.603.604-1.509.946-2.575.946H3.198V.865h2.757c1.066 0 1.951.322 2.575.946 1.006 1.006 1.006 2.213.986 3.48v.685zm-.18-4.87C8.61.383 7.563 0 6.315 0H2.173v11.308h4.145c1.247 0 2.294-.382 3.018-1.107 1.187-1.187 1.167-2.716 1.167-4.185v-.805c0-1.509 0-2.917-1.167-4.104zM7.543 8.41c-.342.423-.784.604-1.428.604H4.707v-6.7h1.409c.644 0 1.086.181 1.428.604.342.422.423 1.086.423 2.696-.02 1.61-.06 2.354-.423 2.796zm.705-6.317c-.544-.544-1.328-.825-2.274-.825H3.6v8.772h2.354c.966 0 1.75-.281 2.273-.825.886-.885.886-2.032.866-3.26v-.683c.02-1.228.04-2.294-.845-3.18zM3.763 18.712l.442-2.937.725-.1-.121.824h.724l-.08.604h-.725l-.241 1.569c-.02.1.02.14.14.14.142 0 .323-.06.484-.12l.16.483c-.24.12-.543.221-.885.221-.462 0-.684-.261-.623-.684zm21.488 0l.443-2.937.724-.1-.12.824h.724l-.08.604h-.725l-.241 1.569c-.02.1.02.14.14.14.141 0 .323-.06.483-.12l.161.483c-.241.12-.543.221-.885.221-.463 0-.684-.261-.624-.684zM7.686 17.324c0-.02.02-.201-.16-.201-.182 0-.584.18-.846.322l-.282 1.891h-.704l.423-2.797.603-.1v.342c.362-.201.805-.362 1.147-.362.403 0 .543.261.564.563 0 .12 0 .181-.02.282l-.302 2.052h-.705l.282-1.992zm1.851 1.187c-.02.161-.04.302.221.302.302 0 .725-.141 1.087-.322l.161.543c-.342.201-.865.383-1.348.383-.765 0-.926-.423-.845-1.007l.12-.865c.101-.664.403-1.066 1.268-1.066.543 0 .926.282.946.744.02.503-.302.805-1.087 1.047-.342.1-.402.12-.543.16l.02.081zm.966-1.288c0-.12-.12-.221-.302-.221-.322 0-.463.201-.503.463l-.04.282c.1-.02.12-.04.422-.121.302-.1.423-.222.423-.403zm12.233-.12c-.322.18-.543.322-.825.503l-.261 1.75h-.704l.422-2.797.604-.1-.02.422c.2-.14.482-.322.724-.422l.06.644zm.02 2.112l.121-.523c.222.08.523.141.805.141.322 0 .382-.06.402-.241.02-.181 0-.242-.442-.443-.604-.302-.684-.503-.624-.946.08-.563.302-.744 1.066-.744.262 0 .624.06.866.14l-.101.544c-.221-.06-.543-.1-.744-.1-.282 0-.363.02-.403.22-.02.202.02.242.342.403.664.362.785.463.724.905-.1.644-.301.845-1.106.845-.262-.02-.644-.08-.906-.2zm-8.973 0l.12-.523c.222.08.524.141.805.141.322 0 .383-.06.403-.241.02-.181 0-.242-.443-.443-.604-.302-.684-.503-.624-.946.08-.563.302-.744 1.067-.744.261 0 .623.06.865.14l-.1.544a3.3 3.3 0 00-.745-.1c-.282 0-.363.02-.403.22-.02.202.02.242.342.403.664.362.785.463.725.905-.1.644-.302.845-1.107.845-.261-.02-.664-.08-.905-.2zm-2.375 0l.121-.523c.221.08.523.141.805.141.322 0 .382-.06.402-.241.02-.181 0-.242-.442-.443-.604-.302-.684-.503-.624-.946.08-.563.302-.744 1.066-.744.262 0 .624.06.865.14l-.1.544c-.221-.06-.543-.1-.744-.1-.282 0-.363.02-.403.22-.02.202.02.242.342.403.664.362.785.463.724.905-.1.644-.301.845-1.106.845-.262-.02-.664-.08-.906-.2zM1.228 16.52l.1-.724h1.55l.1-.624H.724L0 20h.704l.423-2.877h1.509l-.342 2.233h.704l.422-2.837H1.228zm17.283 0l.1-.724h1.55l.1-.624h-2.253L17.284 20h.704l.422-2.877h1.49l-.343 2.233h.704l.423-2.837h-2.173z" fill="#fff"/></svg>