<svg width="44" height="20" fill="none" xmlns="http://www.w3.org/2000/svg"><path d="M14.278 18.556l.018-.036.018.036c.214.357.374.642.641.677.25-.053.303-.32.375-.588 0-.035.018-.053.018-.089a.882.882 0 01-.303-.214c-.018.054-.018.107-.018.143-.018.142-.036.214-.09.214-.017 0-.017 0-.035-.018-.16-.107-.357-.535-.374-.553v-.035c.107-.196.213-.41.32-.606a4.27 4.27 0 01.286-.535l-.41-.214c-.036.178-.125.428-.196.642-.036.107-.072.196-.09.267l-.017.09-.018-.09c-.09-.32-.16-1.105-.178-1.14v-.019h.66l.356.018v-.338l-.375.017h-.66v-.534h-.391c0 .053.017.196.035.285l.018.232h-1.23l-.535.017v.339l.5-.018h1.23v.018c.053.481.195 1.337.303 1.64v.036c-.197.356-.678.748-.82.855.07.036.196.107.338.25.09-.107.446-.482.624-.749z" fill="#fff"/><path d="M13.761 18.52v-.32c-.428.16-1.194.285-1.711.32.018.072.089.286.143.428l1.568-.428zm-.125-1.657l-.356.018h-.553l-.356-.018.018.32v.535l-.018.357.374-.018h.535l.339.018-.018-.41v-.481l.035-.321zm-.338.909h-.57v-.57h.57v.57zm1.158-1.961l.25.303.303-.178-.268-.285-.285.16z" fill="#fff"/><path d="M15.829 19.91l-.018-.516v-3.708l.018-.499-.517.036h-3.226l-.535-.018.018.57v3.672L11.55 20h.41v-.285h3.476v.196h.392zm-3.868-.552v-3.796h3.476v3.796H11.96zm9.358-1.354c.107.748.749 1.408 1.07 1.533.089-.25.25-.41.338-.482-1.034-.427-1.105-1.283-1.105-1.283v-.018l.018-.018a3.58 3.58 0 01.66-.41l-.41-.338a9.37 9.37 0 01-1.017.784l-.035.036-.018-.036c-.178-.357-.535-.624-.553-.624l-.053-.036.053-.035a4.72 4.72 0 00.393-.357l.017-.018h.892l.32.018v-.392l-.303.018h-2.103l-.41-.018v.392l.357-.018h.677l-.071.072c-.321.338-.945.623-1.747.837.142.107.214.286.25.357.498-.16 1.354-.624 1.372-.624h.035c.107.036.196.16.214.16l.018.036-.053-.018c-.57.606-1.515.874-1.819.963.125.107.197.285.232.356.713-.231 1.765-1.016 1.783-1.034l.035-.017.018.035c.018.018.107.125.107.196v.018l-.018.018c-.374.428-1.07 1.016-2.263 1.284a1.3 1.3 0 01.267.41c1.373-.5 2.085-1.284 2.085-1.284l.054-.071.018.089c.036.338 0 .588-.143.748-.178.197-.445.197-.588.197.107.196.178.41.196.499.143-.036.66-.196.784-.428.179-.321.232-.838.125-1.301v-.036l.321-.214v.054z" fill="#fff"/><path d="M18.324 15.544l.018.32v.535l-.018.303h.446v-.766h3.405v.713h.427l-.017-.357v-.428l.017-.32-.374.018h-1.462v-.036c-.035-.196-.124-.428-.142-.517l-.481.089c.07.196.107.41.107.428v.053h-1.551l-.375-.035zm8.396 3.654c0 .178 0 .339.107.463.16.16.535.214 1.194.179 1.195-.054 1.23-.143 1.426-.696.018-.035.018-.07.036-.106a2.154 2.154 0 01-.41-.25c-.107.66-.428.66-1.016.677h-.374c-.34 0-.553-.089-.553-.552v-1.676l.553-.232v1.444l-.018.481h.428l-.018-.48v-1.57l.642-.213v1.016c-.036.303-.125.392-.428.392.107.16.142.356.16.445.125-.017.606-.089.642-.463.018-.196.035-1.765.035-1.996-.07.017-.25.107-.374.16l-.677.267v-.873l.018-.535h-.428l.018.535v.998l-.553.178v-.57l.018-.428h-.464l.018.428v.767h-.035a6.677 6.677 0 01-.482.124l.107.428c.071-.035.214-.089.339-.142l.053-.036v1.747a.115.115 0 01.036.089z" fill="#fff"/><path d="M26.274 18.93v-.445l-.534.25v-1.747h.16c.107 0 .268.017.339.017v-.445c-.072 0-.232.018-.321.018h-.178v-.874c0-.089.018-.285.018-.374h-.428c0 .071.018.25.018.374v.891h-.16c-.161 0-.25 0-.375-.017v.427c.071 0 .25-.017.374-.017h.178v1.853l-.017.018a1.713 1.713 0 01-.517.143c.035.089.124.303.16.57.107-.125.517-.356 1.283-.642zm6.721.09c0-.179-.018-.393-.018-.482l-.642.303V17.47h.25l.25.018v-.446l-.268.018h-.232v-1.212h.357l.214.018v-.428l-.232.018h-.963l-.303-.018v.428l.321-.018h.25v1.212h-.286l-.267-.036v.446l.25-.018h.303v1.48h-.018c-.321.142-.57.195-.642.195l.125.535a22.235 22.235 0 011.55-.641z" fill="#fff"/><path d="M35.918 19.875v-.428l-.41.018h-.927v-.642h.677l.375.018v-.41l-.392.018h-.66v-.606h.642l.428.018-.018-.339v-1.818l.018-.446-.446.018h-1.604l-.41-.018.017.5v1.729l-.017.392.427-.018h.607v.606h-.607l-.356-.018v.392l.374-.018h.589v.642H33.19l-.392-.018v.428l.392-.018h2.264l.463.018zm-1.32-4.242h.66v.748h-.66v-.748zm0 1.087h.66v.767h-.66v-.767zm-.373.767H33.6v-.767h.624v.767zm0-1.123H33.6v-.749h.624v.749z" fill="#fff"/><path d="M0 0h8.984v12.87H0V0zm7.683 1.301H1.3V11.57h6.382V1.3z" fill="#FC0"/><path d="M14.884 5.775h-.553c-.73-1.033-1.461-2.067-2.192-3.226v3.226h-.624v-4.51h.553c.73 1.034 1.461 2.05 2.174 3.21h.018v-3.21h.624v4.51zm1.462-1.782c.178-.588.356-1.14.517-1.836h.018c.178.695.338 1.248.499 1.836h-1.034zm.303-2.727l-1.551 4.492h.66l.392-1.23h1.354l.357 1.23h.855l-1.425-4.492h-.642zm2.798 4.509V1.872h-1.176v-.606h3.137v.606h-1.194v3.903h-.767zm2.977-4.509h-.766v4.492h.766V1.266zm2.371 3.939c-.802 0-1.087-.891-1.087-1.747 0-.838.32-1.622 1.087-1.622.766 0 1.087.784 1.087 1.622 0 .856-.285 1.747-1.087 1.747zm0 .642c1.176 0 1.907-1.052 1.907-2.389 0-1.265-.802-2.264-1.907-2.264s-1.907.999-1.907 2.264c0 1.337.73 2.389 1.907 2.389zm5.74-.072h-.553c-.73-1.033-1.462-2.067-2.192-3.226v3.226h-.624v-4.51h.552c.731 1.034 1.462 2.05 2.175 3.21h.018v-3.21h.624v4.51zm1.479-1.782c.178-.588.357-1.14.517-1.836h.018c.178.695.339 1.248.517 1.836h-1.052zm.285-2.727l-1.55 4.492h.677l.392-1.23h1.355l.356 1.23h.856l-1.426-4.492h-.66zm2.3 0h.766v3.903h1.533v.606h-2.3v-4.51zM14.403 9.537v1.853c-.41.16-.838.268-1.284.268-1.319 0-2.156-1.034-2.156-2.353 0-1.23.837-2.3 2.192-2.3.41 0 .838.16 1.087.339l-.25.535a1.76 1.76 0 00-.82-.232c-.819 0-1.39.642-1.39 1.676 0 1.07.642 1.693 1.302 1.693.214 0 .374-.018.535-.107v-1.39h.784v.018zM17.166 7.7h-1.284v1.23h1.266v.606h-1.266v1.462h1.516v.588h-2.282V7.094h2.05V7.7zm2.371 3.334c-.803 0-1.088-.891-1.088-1.747 0-.82.321-1.622 1.088-1.622.766 0 1.087.784 1.087 1.622 0 .856-.285 1.747-1.087 1.747zm0 .642c1.176 0 1.907-1.052 1.907-2.389 0-1.266-.802-2.264-1.907-2.264-1.106 0-1.908.998-1.908 2.264 0 1.337.731 2.389 1.908 2.389zm5.614-2.139v1.853c-.41.16-.837.268-1.283.268-1.319 0-2.157-1.034-2.157-2.353 0-1.23.838-2.3 2.193-2.3.41 0 .837.16 1.087.339l-.25.535a1.76 1.76 0 00-.82-.232c-.82 0-1.39.642-1.39 1.676 0 1.07.642 1.693 1.301 1.693.214 0 .375-.018.535-.107v-1.39h.784v.018zm1.48-1.837h.339c.463 0 .713.268.713.731 0 .606-.375.874-.731.892-.072 0-.25.017-.321.017V7.7zm1.96 3.886l-.908-1.871c.499-.268.784-.802.784-1.337 0-.874-.535-1.301-1.39-1.301h-1.195v4.492h.767V9.875h.356l.731 1.694h.856v.017zm1.266-1.764c.179-.589.357-1.141.517-1.836h.018c.178.695.339 1.247.5 1.836h-1.035zm.303-2.728l-1.55 4.492h.677l.392-1.23h1.355l.356 1.23h.856L30.82 7.094h-.66zm3.084 4.492h-.766V7.094h1.194c.856 0 1.39.428 1.39 1.302 0 .766-.552 1.497-1.48 1.497h-.356V9.34c.036 0 .25-.017.339-.017.374-.018.73-.286.73-.892 0-.463-.249-.73-.712-.73h-.357v3.885h.018zm5.401 0h-.766V9.43h-1.605v2.156h-.766V7.094h.766v1.73h1.605V7.111h.766v4.474zm1.515-4.492h-.766v4.492h.766V7.094zm3.458.82c-.178-.107-.499-.25-.784-.25-.784 0-1.355.643-1.355 1.676 0 1.07.624 1.694 1.373 1.694.303 0 .57-.09.767-.232l.213.553c-.231.16-.641.303-1.016.303-1.319 0-2.157-1.034-2.157-2.353 0-1.23.82-2.3 2.175-2.3.392 0 .767.16 1.034.339l-.25.57z" fill="#fff"/></svg>