<svg width="89" height="20" viewBox="0 0 89 20" fill="none" xmlns="http://www.w3.org/2000/svg">
<path fill-rule="evenodd" clip-rule="evenodd" d="M32.3842 14.1795C32.3842 11.1795 30.897 9.53848 25.5124 8.66661L25.5124 10.7949C29.2303 11.4359 30.1791 12.4102 30.1534 14.2564C30.1278 16.0256 28.8457 17.8205 24.7688 17.8205C21.3329 17.8205 19.3586 16 18.9483 13.4615H16.4611C16.7688 16.5897 19.3842 20 24.6919 20C30.1021 20 32.3842 16.9744 32.3842 14.1795ZM17.0508 5.43591C17.0508 9.25638 20.5123 10.3846 23.3841 10.641L23.3841 8.48713C21.0252 8.17945 19.2816 7.33335 19.2816 5.4615C19.2816 3.61529 21.1021 2.17945 24.1021 2.17945C26.7944 2.17945 28.5892 3.51279 29.0251 5.5897H31.5893C31.3586 3.359 29.2047 0 24.1021 0C20.2559 0 17.0508 2.10251 17.0508 5.43591ZM0 0.384725V2.61543H14.0513V0.384725H0ZM14.0513 8.89754H0V11.1027H14.0513V8.89754ZM14.0513 17.3847H0V19.6155H14.0513V17.3847ZM37.3326 0.384725V19.6155H35.1019V0.384725H37.3326ZM39.4609 2.61543V0.384725H43.23C46.8455 0.384725 49.1531 2.64111 49.1531 5.74369C49.1531 8.84627 46.7173 11.1027 43.23 11.1027H39.4609V8.87183H43.23C45.6147 8.87183 46.9224 7.58985 46.9224 5.74367C46.9224 3.89749 45.6147 2.61541 43.23 2.61541L39.4609 2.61543ZM54.0759 0.384725H51.8451V19.6155H54.0759V0.384725ZM66.4605 5.74369C66.4605 2.64111 64.1528 0.384725 60.5374 0.384725H56.2041V2.61541H60.4605C62.8451 2.61541 64.1015 4.0257 64.1015 5.74367C64.1015 7.48723 62.8451 8.87183 60.4605 8.87183H56.2041V11.1027H60.5374C64.0246 11.1027 66.4605 8.84627 66.4605 5.74369ZM59.8708 13.0257L64.2297 19.6155H67.0246L62.5374 13.0257H59.8708ZM69.6653 0.384725H71.8961V19.6155H69.6653V0.384725ZM74.2802 0.384725V2.61543H88.8443V0.384725H74.2802ZM82.6905 19.6155V4.69235H80.4596V19.6155H82.6905Z" fill="white"/>
</svg>
