<svg width="89" height="20" fill="none" xmlns="http://www.w3.org/2000/svg"><path fill-rule="evenodd" clip-rule="evenodd" d="M32.384 14.18c0-3-1.487-4.642-6.872-5.513v2.128c3.718.64 4.667 1.615 4.641 3.461-.025 1.77-1.307 3.564-5.384 3.564-3.436 0-5.41-1.82-5.82-4.359H16.46C16.77 16.59 19.384 20 24.691 20c5.411 0 7.693-3.026 7.693-5.82zM17.051 5.436c0 3.82 3.461 4.949 6.333 5.205V8.487c-2.359-.308-4.102-1.154-4.102-3.026 0-1.846 1.82-3.282 4.82-3.282 2.692 0 4.487 1.334 4.923 3.41h2.564C31.36 3.36 29.205 0 24.102 0c-3.846 0-7.051 2.103-7.051 5.436zM0 .385v2.23h14.051V.385H0zm14.051 8.513H0v2.205h14.051V8.898zm0 8.487H0v2.23h14.051v-2.23zm23.282-17v19.23h-2.231V.386h2.23zm2.128 2.23V.385h3.769c3.616 0 5.923 2.256 5.923 5.359 0 3.102-2.436 5.359-5.923 5.359h-3.77V8.872h3.77c2.385 0 3.692-1.282 3.692-3.128 0-1.847-1.307-3.129-3.692-3.129h-3.77zM54.076.385h-2.23v19.23h2.23V.386zM66.46 5.744c0-3.103-2.307-5.36-5.923-5.36h-4.333v2.231h4.257c2.384 0 3.64 1.41 3.64 3.129 0 1.743-1.256 3.128-3.64 3.128h-4.257v2.23h4.333c3.488 0 5.923-2.256 5.923-5.358zm-6.59 7.282l4.36 6.59h2.795l-4.488-6.59h-2.666zM69.666.385h2.231v19.23h-2.23V.386zm4.615 0v2.23h14.564V.385H74.28zm8.41 19.23V4.693h-2.23v14.924h2.23z" fill="#fff"/></svg>