<svg width="172" height="20" fill="none" xmlns="http://www.w3.org/2000/svg"><path d="M22.114 19.596h6.247L31.711.428h-6.248l-1.235 6.864h-5.416L20.047.428H13.8l-3.349 19.168h6.247l1.26-7.173h5.415l-1.259 7.173zM35.25.404l-1.9 10.665a12.246 12.246 0 00-.238 2.399c0 5.653 4.94 6.508 7.91 6.508 6.223 0 8.907-2.066 9.88-7.648L52.993.38h-6.246l-1.782 10.024c-.57 3.135-.974 4.774-3.301 4.774-1.52 0-2.257-.807-2.257-2.47 0-.642.095-1.425.285-2.4L41.496.38H35.25v.024zm50.76 19.192h6.246l.88-4.94h2.945c5.439 0 8.456-2.946 8.456-8.314 0-3.777-2.613-5.938-7.197-5.938h-7.981l-3.35 19.192zm9.738-9.667h-1.805l.831-4.513h1.687c1.377 0 2.114.688 2.114 1.947 0 1.592-1.07 2.566-2.827 2.566zM116.675 0c-6.794 0-10.856 4.394-10.856 11.781 0 5.131 3.231 8.219 8.647 8.219 6.793 0 10.855-4.394 10.855-11.781.023-5.155-3.207-8.219-8.646-8.219zm-1.829 15.036c-1.616 0-2.566-1.164-2.566-3.112 0-.736.072-1.378.214-2.114.475-2.518 1.283-4.822 3.824-4.822 1.615 0 2.566 1.164 2.566 3.112 0 .736-.072 1.377-.214 2.114-.475 2.494-1.283 4.822-3.824 4.822zm32.209 4.56h6.247l2.47-14.038h4.703l.903-5.13h-15.986l-.903 5.13h4.988l-2.422 14.038zm-10.357-12.09c-1.971-.618-2.779-.879-2.779-1.805 0-.618.404-1.354 1.592-1.354.878 0 1.615.499 1.9 1.235l5.511-1.496C142.28 1.378 139.952 0 135.938 0c-7.553 0-8.147 5.06-8.147 6.603 0 3.136 1.663 5.06 5.273 6.057.95.262 2.043.547 2.043 1.592 0 .831-.618 1.354-1.687 1.354-.974 0-2.019-.57-2.375-1.568l-5.439 1.473c.593 2.85 3.278 4.465 7.482 4.465 3.206 0 8.575-.855 8.575-6.65.023-2.898-1.616-4.799-4.965-5.82zM6.96 19.596L10.332.428H0v19.168h6.96zM164.062.428l-3.349 19.168h10.332V.428h-6.983zM60.451 13.943h5.25l.855-4.822h-5.25l.594-3.563h7.34l.903-5.154H56.555l-3.35 19.192h6.248l.997-5.653zm16.366 0h5.273l.855-4.822h-5.249l.594-3.563h7.34l.902-5.154H72.945l-3.349 19.192h6.247l.974-5.653z" fill="#fff"/></svg>